<svg xmlns="http://www.w3.org/2000/svg" viewBox="0 0 24 24" fill="none">
  <path d="M12 2C9.243 2 7.5 3.5 7.5 6.5v1.25c-.85.12-1.5.35-1.5.35-.25.1-.25.35 0 .45 0 0 .65.25 1.5.35-.1 1.5-.75 2.5-1.75 3.35-.5.4-.25 1 .5.85.5-.1 1-.25 1.25-.1.25.15.5.75 1.25 1.35.75.6 1.75.9 3.25.95 1.5-.05 2.5-.35 3.25-.95.75-.6 1-1.2 1.25-1.35.25-.15.75 0 1.25.1.75.15 1-.45.5-.85-1-.85-1.65-1.85-1.75-3.35.85-.1 1.5-.35 1.5-.35.25-.1.25-.35 0-.45 0 0-.65-.23-1.5-.35V6.5C16.5 3.5 14.757 2 12 2z" fill="#F0E6E0"/>
</svg>
