<?xml version="1.0" encoding="UTF-8" standalone="no"?>
<svg xmlns="http://www.w3.org/2000/svg" viewBox="0 0 1024 1024" width="1024" height="1024" fill="none">
<circle cx="512.0000" cy="512.0000" r="437.6313" stroke="#000000" stroke-width="11.4413" fill="none"/>
<g transform="translate(260.2905 296.5214) scale(0.47672253)"><g transform="translate(71.82 116.00) scale(0.22840410)"><path d="M 3731.00 303.00 L 3674.00 244.00 L 3630.00 205.00 L 3623.00 204.00 L 3606.00 188.00 L 3548.00 149.00 L 3525.00 138.00 L 3519.00 132.00 L 3511.00 131.00 L 3505.00 124.00 L 3495.00 123.00 L 3489.00 117.00 L 3479.00 115.00 L 3471.00 108.00 L 3462.00 107.00 L 3453.00 100.00 L 3426.00 91.00 L 3418.00 84.00 L 3406.00 83.00 L 3396.00 76.00 L 3383.00 75.00 L 3377.00 69.00 L 3366.00 67.00 L 3356.00 60.00 L 3341.00 59.00 L 3329.00 52.00 L 3310.00 51.00 L 3300.00 44.00 L 3272.00 42.00 L 3260.00 36.00 L 3234.00 35.00 L 3219.00 28.00 L 3189.00 27.00 L 3172.00 21.00 L 3133.00 19.00 L 3106.00 12.00 L 3038.00 11.00 L 2986.00 4.00 L 2593.00 0.00 L 2007.00 4.00 L 1767.00 11.00 L 1510.00 14.00 L 1456.00 12.00 L 1446.00 17.00 L 1422.00 20.00 L 1409.00 31.00 L 1404.00 59.00 L 1408.00 124.00 L 1421.00 135.00 L 1493.00 144.00 L 1503.00 150.00 L 1524.00 152.00 L 1531.00 158.00 L 1541.00 159.00 L 1551.00 167.00 L 1558.00 168.00 L 1592.00 202.00 L 1593.00 210.00 L 1600.00 217.00 L 1601.00 225.00 L 1608.00 234.00 L 1609.00 249.00 L 1616.00 260.00 L 1617.00 284.00 L 1624.00 306.00 L 1625.00 377.00 L 1632.00 440.00 L 1633.00 573.00 L 1642.00 684.00 L 1698.00 772.00 L 1712.00 787.00 L 1714.00 794.00 L 1752.00 843.00 L 1753.00 849.00 L 1776.00 875.00 L 1778.00 883.00 L 1791.00 898.00 L 1794.00 907.00 L 1809.00 923.00 L 1818.00 940.00 L 1832.00 954.00 L 1833.00 961.00 L 1848.00 979.00 L 1849.00 985.00 L 1865.00 1003.00 L 1874.00 1020.00 L 1904.00 1059.00 L 1905.00 1066.00 L 1920.00 1083.00 L 1922.00 1092.00 L 1952.00 1129.00 L 1954.00 1136.00 L 1992.00 1185.00 L 2017.00 1224.00 L 2040.00 1250.00 L 2042.00 1262.00 L 2051.00 1273.00 L 2058.00 1273.00 L 2060.00 1270.00 L 2062.00 1208.00 L 2057.00 291.00 L 2061.00 226.00 L 2067.00 218.00 L 2070.00 204.00 L 2096.00 176.00 L 2105.00 174.00 L 2111.00 168.00 L 2125.00 167.00 L 2135.00 160.00 L 2150.00 158.00 L 2158.00 152.00 L 2180.00 151.00 L 2199.00 144.00 L 2246.00 142.00 L 2266.00 136.00 L 2331.00 134.00 L 2345.00 130.00 L 2452.00 130.00 L 2477.00 135.00 L 2532.00 136.00 L 2556.00 143.00 L 2577.00 144.00 L 2587.00 150.00 L 2598.00 151.00 L 2609.00 159.00 L 2622.00 160.00 L 2633.00 170.00 L 2648.00 205.00 L 2655.00 317.00 L 2657.00 854.00 L 2663.00 1051.00 L 2666.00 1512.00 L 2670.00 1554.00 L 2672.00 1724.00 L 2669.00 1735.00 L 2657.00 1732.00 L 2603.00 1732.00 L 2543.00 1724.00 L 2501.00 1723.00 L 2477.00 1716.00 L 2443.00 1715.00 L 2426.00 1708.00 L 2396.00 1707.00 L 2376.00 1700.00 L 2351.00 1700.00 L 2340.00 1693.00 L 2319.00 1692.00 L 2307.00 1673.00 L 2285.00 1649.00 L 2284.00 1641.00 L 2270.00 1625.00 L 2268.00 1618.00 L 2245.00 1592.00 L 2220.00 1554.00 L 2165.00 1482.00 L 2163.00 1475.00 L 2125.00 1425.00 L 2123.00 1417.00 L 2108.00 1400.00 L 2099.00 1383.00 L 2046.00 1314.00 L 2044.00 1306.00 L 1973.00 1216.00 L 1923.00 1139.00 L 1902.00 1112.00 L 1900.00 1105.00 L 1861.00 1057.00 L 1851.00 1039.00 L 1844.00 1033.00 L 1836.00 1016.00 L 1781.00 944.00 L 1763.00 914.00 L 1748.00 896.00 L 1747.00 890.00 L 1709.00 841.00 L 1708.00 834.00 L 1661.00 776.00 L 1652.00 759.00 L 1621.00 720.00 L 1619.00 713.00 L 1604.00 697.00 L 1596.00 681.00 L 1581.00 664.00 L 1579.00 655.00 L 1548.00 616.00 L 1540.00 601.00 L 1525.00 585.00 L 1524.00 578.00 L 1485.00 528.00 L 1483.00 520.00 L 1452.00 480.00 L 1451.00 474.00 L 1429.00 448.00 L 1428.00 441.00 L 1413.00 425.00 L 1411.00 418.00 L 1389.00 392.00 L 1387.00 384.00 L 1373.00 369.00 L 1371.00 362.00 L 1350.00 338.00 L 1348.00 331.00 L 1301.00 271.00 L 1299.00 264.00 L 1285.00 248.00 L 1284.00 242.00 L 1245.00 193.00 L 1243.00 185.00 L 1222.00 161.00 L 1219.00 152.00 L 1204.00 136.00 L 1196.00 120.00 L 1181.00 105.00 L 1156.00 66.00 L 1133.00 40.00 L 1132.00 35.00 L 1111.00 13.00 L 1102.00 10.00 L 833.00 13.00 L 763.00 18.00 L 468.00 21.00 L 457.00 34.00 L 450.00 66.00 L 447.00 100.00 L 450.00 126.00 L 459.00 135.00 L 498.00 138.00 L 509.00 143.00 L 533.00 144.00 L 546.00 150.00 L 578.00 153.00 L 589.00 159.00 L 600.00 160.00 L 631.00 177.00 L 656.00 213.00 L 658.00 223.00 L 664.00 232.00 L 668.00 249.00 L 666.00 257.00 L 672.00 269.00 L 673.00 301.00 L 680.00 354.00 L 683.00 571.00 L 688.00 691.00 L 690.00 1655.00 L 696.00 1666.00 L 684.00 1675.00 L 656.00 1677.00 L 647.00 1683.00 L 631.00 1684.00 L 620.00 1691.00 L 606.00 1693.00 L 597.00 1699.00 L 585.00 1700.00 L 575.00 1707.00 L 561.00 1709.00 L 556.00 1714.00 L 543.00 1716.00 L 534.00 1723.00 L 521.00 1725.00 L 516.00 1730.00 L 505.00 1733.00 L 485.00 1747.00 L 477.00 1748.00 L 471.00 1754.00 L 459.00 1757.00 L 454.00 1763.00 L 444.00 1765.00 L 437.00 1772.00 L 431.00 1772.00 L 424.00 1778.00 L 413.00 1781.00 L 397.00 1795.00 L 389.00 1797.00 L 350.00 1826.00 L 343.00 1828.00 L 321.00 1845.00 L 309.00 1859.00 L 291.00 1869.00 L 252.00 1902.00 L 210.00 1944.00 L 145.00 2026.00 L 144.00 2032.00 L 114.00 2074.00 L 113.00 2081.00 L 106.00 2087.00 L 104.00 2096.00 L 98.00 2101.00 L 96.00 2111.00 L 82.00 2132.00 L 79.00 2143.00 L 74.00 2147.00 L 71.00 2159.00 L 66.00 2163.00 L 64.00 2176.00 L 57.00 2184.00 L 57.00 2192.00 L 49.00 2203.00 L 48.00 2216.00 L 41.00 2225.00 L 40.00 2238.00 L 33.00 2249.00 L 32.00 2265.00 L 25.00 2275.00 L 23.00 2297.00 L 17.00 2306.00 L 16.00 2329.00 L 9.00 2344.00 L 8.00 2385.00 L 1.00 2404.00 L 1.00 2589.00 L 7.00 2617.00 L 9.00 2657.00 L 16.00 2675.00 L 17.00 2694.00 L 24.00 2707.00 L 25.00 2725.00 L 32.00 2739.00 L 33.00 2756.00 L 40.00 2765.00 L 41.00 2780.00 L 47.00 2788.00 L 49.00 2804.00 L 55.00 2812.00 L 57.00 2827.00 L 64.00 2835.00 L 65.00 2845.00 L 72.00 2855.00 L 73.00 2864.00 L 88.00 2889.00 L 90.00 2899.00 L 97.00 2906.00 L 97.00 2912.00 L 103.00 2918.00 L 114.00 2945.00 L 144.00 2987.00 L 146.00 2995.00 L 152.00 3000.00 L 161.00 3018.00 L 202.00 3068.00 L 284.00 3150.00 L 318.00 3175.00 L 344.00 3199.00 L 382.00 3223.00 L 388.00 3230.00 L 397.00 3232.00 L 415.00 3247.00 L 421.00 3247.00 L 438.00 3262.00 L 448.00 3264.00 L 496.00 3294.00 L 506.00 3296.00 L 515.00 3303.00 L 524.00 3304.00 L 533.00 3311.00 L 540.00 3311.00 L 564.00 3327.00 L 579.00 3328.00 L 588.00 3335.00 L 598.00 3336.00 L 606.00 3343.00 L 621.00 3345.00 L 628.00 3351.00 L 644.00 3354.00 L 648.00 3358.00 L 668.00 3361.00 L 679.00 3367.00 L 694.00 3368.00 L 706.00 3375.00 L 724.00 3376.00 L 738.00 3383.00 L 764.00 3385.00 L 773.00 3391.00 L 803.00 3393.00 L 815.00 3399.00 L 848.00 3400.00 L 872.00 3407.00 L 924.00 3409.00 L 934.00 3413.00 L 957.00 3415.00 L 1088.00 3415.00 L 1147.00 3408.00 L 1210.00 3407.00 L 1233.00 3400.00 L 1269.00 3399.00 L 1290.00 3392.00 L 1315.00 3391.00 L 1327.00 3384.00 L 1350.00 3383.00 L 1361.00 3377.00 L 1383.00 3375.00 L 1393.00 3368.00 L 1411.00 3367.00 L 1423.00 3360.00 L 1440.00 3358.00 L 1448.00 3352.00 L 1462.00 3351.00 L 1472.00 3344.00 L 1486.00 3343.00 L 1495.00 3336.00 L 1507.00 3334.00 L 1513.00 3328.00 L 1525.00 3327.00 L 1534.00 3320.00 L 1545.00 3319.00 L 1552.00 3312.00 L 1563.00 3311.00 L 1575.00 3303.00 L 1583.00 3303.00 L 1589.00 3297.00 L 1600.00 3295.00 L 1607.00 3288.00 L 1615.00 3287.00 L 1635.00 3273.00 L 1649.00 3270.00 L 1665.00 3256.00 L 1672.00 3255.00 L 1704.00 3232.00 L 1710.00 3231.00 L 1767.00 3184.00 L 1776.00 3182.00 L 1819.00 3141.00 L 1875.00 3081.00 L 1955.00 2971.00 L 1957.00 2962.00 L 1964.00 2955.00 L 1965.00 2945.00 L 1972.00 2938.00 L 1972.00 2932.00 L 1979.00 2924.00 L 1981.00 2914.00 L 1996.00 2890.00 L 1997.00 2877.00 L 2004.00 2868.00 L 2005.00 2858.00 L 2012.00 2850.00 L 2013.00 2838.00 L 2020.00 2829.00 L 2022.00 2814.00 L 2028.00 2806.00 L 2029.00 2791.00 L 2036.00 2780.00 L 2037.00 2767.00 L 2044.00 2755.00 L 2045.00 2734.00 L 2052.00 2722.00 L 2053.00 2703.00 L 2060.00 2686.00 L 2061.00 2662.00 L 2068.00 2642.00 L 2069.00 2600.00 L 2076.00 2578.00 L 2078.00 2488.00 L 2084.00 2443.00 L 2084.00 2391.00 L 2075.00 2375.00 L 2068.00 2369.00 L 2067.00 2362.00 L 2053.00 2346.00 L 2051.00 2339.00 L 2029.00 2312.00 L 2019.00 2294.00 L 1941.00 2191.00 L 1940.00 2185.00 L 1925.00 2168.00 L 1923.00 2160.00 L 1909.00 2145.00 L 1908.00 2139.00 L 1894.00 2124.00 L 1883.00 2102.00 L 1876.00 2097.00 L 1867.00 2080.00 L 1853.00 2065.00 L 1836.00 2035.00 L 1781.00 1961.00 L 1771.00 1942.00 L 1764.00 1936.00 L 1763.00 1930.00 L 1717.00 1874.00 L 1706.00 1855.00 L 1693.00 1842.00 L 1683.00 1817.00 L 1674.00 1810.00 L 1667.00 1810.00 L 1664.00 1824.00 L 1670.00 2090.00 L 1671.00 2489.00 L 1667.00 2519.00 L 1663.00 2633.00 L 1657.00 2650.00 L 1655.00 2686.00 L 1649.00 2702.00 L 1648.00 2733.00 L 1642.00 2745.00 L 1640.00 2770.00 L 1633.00 2782.00 L 1632.00 2797.00 L 1626.00 2806.00 L 1624.00 2826.00 L 1618.00 2834.00 L 1608.00 2870.00 L 1602.00 2877.00 L 1600.00 2889.00 L 1594.00 2895.00 L 1584.00 2921.00 L 1577.00 2929.00 L 1576.00 2938.00 L 1570.00 2945.00 L 1568.00 2954.00 L 1561.00 2962.00 L 1560.00 2970.00 L 1553.00 2976.00 L 1551.00 2984.00 L 1538.00 3000.00 L 1535.00 3009.00 L 1506.00 3042.00 L 1497.00 3057.00 L 1450.00 3106.00 L 1400.00 3146.00 L 1375.00 3162.00 L 1367.00 3164.00 L 1349.00 3178.00 L 1338.00 3181.00 L 1334.00 3186.00 L 1303.00 3196.00 L 1297.00 3202.00 L 1286.00 3204.00 L 1278.00 3211.00 L 1268.00 3212.00 L 1259.00 3219.00 L 1243.00 3220.00 L 1232.00 3227.00 L 1217.00 3228.00 L 1205.00 3235.00 L 1186.00 3236.00 L 1172.00 3243.00 L 1152.00 3244.00 L 1137.00 3251.00 L 1104.00 3253.00 L 1093.00 3259.00 L 959.00 3266.00 L 919.00 3260.00 L 865.00 3258.00 L 845.00 3252.00 L 817.00 3251.00 L 806.00 3244.00 L 783.00 3243.00 L 765.00 3236.00 L 753.00 3236.00 L 740.00 3228.00 L 721.00 3227.00 L 711.00 3220.00 L 695.00 3219.00 L 688.00 3212.00 L 673.00 3211.00 L 665.00 3204.00 L 655.00 3203.00 L 646.00 3196.00 L 640.00 3196.00 L 629.00 3188.00 L 603.00 3178.00 L 597.00 3172.00 L 589.00 3171.00 L 583.00 3165.00 L 574.00 3163.00 L 569.00 3157.00 L 558.00 3154.00 L 554.00 3149.00 L 519.00 3130.00 L 455.00 3084.00 L 381.00 3017.00 L 371.00 3000.00 L 341.00 2969.00 L 340.00 2963.00 L 324.00 2945.00 L 323.00 2938.00 L 309.00 2921.00 L 307.00 2912.00 L 294.00 2895.00 L 283.00 2870.00 L 277.00 2865.00 L 276.00 2857.00 L 269.00 2849.00 L 268.00 2840.00 L 261.00 2831.00 L 251.00 2795.00 L 245.00 2788.00 L 244.00 2775.00 L 237.00 2766.00 L 236.00 2747.00 L 229.00 2738.00 L 228.00 2722.00 L 221.00 2712.00 L 220.00 2691.00 L 213.00 2681.00 L 212.00 2657.00 L 205.00 2641.00 L 204.00 2604.00 L 197.00 2575.00 L 197.00 2403.00 L 204.00 2385.00 L 205.00 2351.00 L 212.00 2332.00 L 214.00 2298.00 L 220.00 2288.00 L 221.00 2269.00 L 228.00 2259.00 L 229.00 2243.00 L 236.00 2233.00 L 237.00 2219.00 L 243.00 2213.00 L 245.00 2199.00 L 258.00 2176.00 L 260.00 2163.00 L 267.00 2155.00 L 269.00 2145.00 L 276.00 2139.00 L 278.00 2130.00 L 299.00 2102.00 L 301.00 2091.00 L 331.00 2052.00 L 340.00 2035.00 L 363.00 2012.00 L 366.00 2004.00 L 384.00 1985.00 L 390.00 1983.00 L 440.00 1935.00 L 457.00 1926.00 L 496.00 1896.00 L 502.00 1895.00 L 535.00 1871.00 L 541.00 1870.00 L 545.00 1865.00 L 559.00 1863.00 L 566.00 1856.00 L 575.00 1854.00 L 593.00 1841.00 L 622.00 1830.00 L 629.00 1824.00 L 638.00 1823.00 L 647.00 1816.00 L 660.00 1814.00 L 665.00 1809.00 L 686.00 1800.00 L 689.00 1803.00 L 694.00 2214.00 L 692.00 2246.00 L 696.00 2482.00 L 695.00 2785.00 L 690.00 2792.00 L 679.00 2825.00 L 654.00 2843.00 L 642.00 2845.00 L 634.00 2851.00 L 613.00 2853.00 L 605.00 2859.00 L 581.00 2861.00 L 564.00 2867.00 L 531.00 2868.00 L 483.00 2878.00 L 480.00 2894.00 L 481.00 2978.00 L 492.00 2990.00 L 506.00 2992.00 L 844.00 2990.00 L 942.00 2984.00 L 1166.00 2982.00 L 1180.00 2973.00 L 1182.00 2959.00 L 1178.00 2876.00 L 1169.00 2861.00 L 1137.00 2859.00 L 1098.00 2852.00 L 1052.00 2850.00 L 1036.00 2844.00 L 1017.00 2842.00 L 1007.00 2836.00 L 993.00 2835.00 L 952.00 2812.00 L 933.00 2792.00 L 932.00 2785.00 L 925.00 2776.00 L 924.00 2761.00 L 920.00 2753.00 L 921.00 2745.00 L 917.00 2736.00 L 915.00 2578.00 L 909.00 2477.00 L 908.00 2151.00 L 901.00 1738.00 L 905.00 1735.00 L 923.00 1735.00 L 944.00 1727.00 L 970.00 1726.00 L 992.00 1720.00 L 1034.00 1719.00 L 1061.00 1712.00 L 1147.00 1710.00 L 1185.00 1704.00 L 1278.00 1702.00 L 1330.00 1696.00 L 1515.00 1696.00 L 1525.00 1694.00 L 1532.00 1687.00 L 1532.00 1679.00 L 1521.00 1669.00 L 1512.00 1666.00 L 1506.00 1660.00 L 1496.00 1658.00 L 1480.00 1644.00 L 1327.00 1627.00 L 1148.00 1622.00 L 941.00 1628.00 L 934.00 1632.00 L 901.00 1632.00 L 892.00 1248.00 L 892.00 824.00 L 884.00 535.00 L 887.00 525.00 L 935.00 587.00 L 962.00 633.00 L 999.00 684.00 L 1002.00 694.00 L 1008.00 699.00 L 1009.00 707.00 L 1017.00 714.00 L 1025.00 729.00 L 1041.00 747.00 L 1042.00 753.00 L 1064.00 779.00 L 1066.00 788.00 L 1097.00 827.00 L 1098.00 835.00 L 1113.00 851.00 L 1114.00 857.00 L 1128.00 873.00 L 1130.00 881.00 L 1152.00 908.00 L 1154.00 916.00 L 1167.00 931.00 L 1170.00 940.00 L 1184.00 955.00 L 1185.00 961.00 L 1200.00 979.00 L 1201.00 985.00 L 1216.00 1002.00 L 1217.00 1009.00 L 1232.00 1026.00 L 1233.00 1033.00 L 1248.00 1050.00 L 1266.00 1081.00 L 1287.00 1106.00 L 1290.00 1115.00 L 1304.00 1131.00 L 1305.00 1137.00 L 1320.00 1154.00 L 1321.00 1161.00 L 1351.00 1201.00 L 1369.00 1235.00 L 1401.00 1275.00 L 1402.00 1283.00 L 1416.00 1298.00 L 1418.00 1305.00 L 1440.00 1332.00 L 1442.00 1340.00 L 1455.00 1354.00 L 1457.00 1363.00 L 1465.00 1370.00 L 1473.00 1386.00 L 1487.00 1403.00 L 1490.00 1412.00 L 1520.00 1452.00 L 1521.00 1458.00 L 1552.00 1498.00 L 1554.00 1506.00 L 1568.00 1522.00 L 1569.00 1529.00 L 1608.00 1581.00 L 1618.00 1601.00 L 1633.00 1619.00 L 1634.00 1625.00 L 1655.00 1651.00 L 1658.00 1660.00 L 1671.00 1674.00 L 1674.00 1683.00 L 1689.00 1699.00 L 1690.00 1704.00 L 1705.00 1722.00 L 1706.00 1728.00 L 1744.00 1778.00 L 1745.00 1785.00 L 1760.00 1803.00 L 1778.00 1836.00 L 1792.00 1851.00 L 1793.00 1859.00 L 1801.00 1866.00 L 1809.00 1882.00 L 1840.00 1922.00 L 1841.00 1929.00 L 1856.00 1945.00 L 1865.00 1963.00 L 1879.00 1979.00 L 1882.00 1989.00 L 1888.00 1993.00 L 1897.00 2011.00 L 1911.00 2027.00 L 1913.00 2035.00 L 1921.00 2042.00 L 1930.00 2060.00 L 1944.00 2075.00 L 1946.00 2083.00 L 1960.00 2098.00 L 1961.00 2104.00 L 2000.00 2155.00 L 2001.00 2161.00 L 2015.00 2178.00 L 2034.00 2211.00 L 2079.00 2274.00 L 2081.00 2282.00 L 2096.00 2298.00 L 2097.00 2306.00 L 2128.00 2345.00 L 2138.00 2363.00 L 2152.00 2377.00 L 2177.00 2418.00 L 2192.00 2435.00 L 2193.00 2441.00 L 2233.00 2491.00 L 2234.00 2497.00 L 2247.00 2512.00 L 2250.00 2521.00 L 2265.00 2539.00 L 2274.00 2557.00 L 2281.00 2563.00 L 2289.00 2579.00 L 2320.00 2620.00 L 2320.00 2625.00 L 2329.00 2635.00 L 2330.00 2641.00 L 2351.00 2665.00 L 2354.00 2675.00 L 2384.00 2715.00 L 2386.00 2723.00 L 2407.00 2747.00 L 2409.00 2755.00 L 2439.00 2794.00 L 2442.00 2803.00 L 2456.00 2818.00 L 2458.00 2825.00 L 2479.00 2851.00 L 2497.00 2881.00 L 2513.00 2898.00 L 2538.00 2939.00 L 2553.00 2955.00 L 2594.00 3020.00 L 2630.00 3056.00 L 2880.00 3057.00 L 2906.00 3053.00 L 2910.00 3045.00 L 2911.00 3010.00 L 2908.00 2985.00 L 2908.00 2890.00 L 2901.00 2726.00 L 2899.00 2408.00 L 2893.00 2254.00 L 2892.00 1963.00 L 2890.00 1914.00 L 2886.00 1899.00 L 2893.00 1895.00 L 2926.00 1895.00 L 2952.00 1888.00 L 2996.00 1887.00 L 3024.00 1880.00 L 3051.00 1879.00 L 3070.00 1872.00 L 3092.00 1871.00 L 3107.00 1864.00 L 3137.00 1863.00 L 3153.00 1856.00 L 3175.00 1855.00 L 3185.00 1848.00 L 3206.00 1847.00 L 3218.00 1840.00 L 3239.00 1839.00 L 3249.00 1833.00 L 3267.00 1831.00 L 3276.00 1825.00 L 3292.00 1823.00 L 3327.00 1808.00 L 3341.00 1807.00 L 3350.00 1800.00 L 3363.00 1798.00 L 3369.00 1792.00 L 3383.00 1791.00 L 3391.00 1784.00 L 3401.00 1783.00 L 3410.00 1776.00 L 3421.00 1775.00 L 3432.00 1767.00 L 3442.00 1766.00 L 3448.00 1760.00 L 3460.00 1758.00 L 3496.00 1737.00 L 3507.00 1734.00 L 3535.00 1713.00 L 3545.00 1710.00 L 3550.00 1704.00 L 3570.00 1694.00 L 3631.00 1647.00 L 3672.00 1607.00 L 3685.00 1598.00 L 3748.00 1529.00 L 3750.00 1523.00 L 3779.00 1489.00 L 3797.00 1457.00 L 3804.00 1451.00 L 3814.00 1430.00 L 3819.00 1426.00 L 3821.00 1417.00 L 3828.00 1410.00 L 3828.00 1402.00 L 3835.00 1396.00 L 3845.00 1370.00 L 3852.00 1363.00 L 3853.00 1354.00 L 3860.00 1345.00 L 3861.00 1334.00 L 3868.00 1325.00 L 3869.00 1315.00 L 3876.00 1308.00 L 3876.00 1298.00 L 3884.00 1289.00 L 3885.00 1272.00 L 3891.00 1265.00 L 3893.00 1249.00 L 3900.00 1238.00 L 3909.00 1187.00 L 3916.00 1175.00 L 3917.00 1154.00 L 3924.00 1141.00 L 3925.00 1112.00 L 3932.00 1095.00 L 3933.00 1060.00 L 3940.00 1033.00 L 3941.00 825.00 L 3940.00 788.00 L 3933.00 764.00 L 3932.00 737.00 L 3925.00 720.00 L 3924.00 694.00 L 3917.00 677.00 L 3916.00 657.00 L 3909.00 645.00 L 3908.00 626.00 L 3901.00 616.00 L 3900.00 601.00 L 3894.00 592.00 L 3891.00 571.00 L 3877.00 546.00 L 3876.00 535.00 L 3869.00 527.00 L 3868.00 516.00 L 3861.00 505.00 L 3860.00 496.00 L 3845.00 472.00 L 3843.00 462.00 L 3837.00 457.00 L 3836.00 449.00 L 3829.00 442.00 L 3827.00 433.00 L 3822.00 429.00 L 3819.00 419.00 L 3805.00 402.00 L 3795.00 383.00 L 3780.00 368.00 L 3771.00 351.00 L 3750.00 329.00 Z M 2438.00 1867.00 L 2445.00 1871.00 L 2468.00 1873.00 L 2477.00 1879.00 L 2497.00 1880.00 L 2512.00 1886.00 L 2534.00 1887.00 L 2563.00 1895.00 L 2606.00 1896.00 L 2624.00 1902.00 L 2668.00 1903.00 L 2672.00 1906.00 L 2677.00 2223.00 L 2669.00 2219.00 L 2651.00 2186.00 L 2558.00 2056.00 L 2555.00 2046.00 L 2548.00 2040.00 L 2539.00 2022.00 L 2533.00 2017.00 L 2532.00 2011.00 L 2517.00 1994.00 L 2508.00 1976.00 L 2500.00 1969.00 L 2491.00 1951.00 L 2477.00 1936.00 L 2475.00 1925.00 L 2437.00 1874.00 Z M 2865.00 144.00 L 2876.00 144.00 L 2897.00 151.00 L 2920.00 152.00 L 2937.00 159.00 L 2959.00 160.00 L 2969.00 166.00 L 2987.00 168.00 L 2997.00 175.00 L 3012.00 177.00 L 3017.00 182.00 L 3032.00 185.00 L 3038.00 191.00 L 3052.00 192.00 L 3058.00 198.00 L 3069.00 201.00 L 3085.00 214.00 L 3108.00 224.00 L 3159.00 264.00 L 3214.00 315.00 L 3264.00 378.00 L 3265.00 385.00 L 3280.00 403.00 L 3282.00 411.00 L 3288.00 416.00 L 3298.00 437.00 L 3304.00 442.00 L 3306.00 453.00 L 3312.00 459.00 L 3313.00 469.00 L 3320.00 479.00 L 3321.00 490.00 L 3329.00 500.00 L 3329.00 513.00 L 3336.00 521.00 L 3338.00 535.00 L 3344.00 542.00 L 3345.00 555.00 L 3353.00 570.00 L 3353.00 585.00 L 3360.00 594.00 L 3361.00 610.00 L 3367.00 620.00 L 3369.00 646.00 L 3376.00 660.00 L 3377.00 684.00 L 3383.00 695.00 L 3385.00 736.00 L 3392.00 766.00 L 3393.00 813.00 L 3399.00 849.00 L 3398.00 1047.00 L 3394.00 1068.00 L 3392.00 1135.00 L 3385.00 1152.00 L 3384.00 1181.00 L 3377.00 1201.00 L 3376.00 1238.00 L 3369.00 1254.00 L 3367.00 1279.00 L 3361.00 1290.00 L 3360.00 1305.00 L 3353.00 1315.00 L 3352.00 1330.00 L 3346.00 1338.00 L 3344.00 1353.00 L 3337.00 1361.00 L 3336.00 1372.00 L 3330.00 1379.00 L 3327.00 1393.00 L 3321.00 1399.00 L 3321.00 1408.00 L 3313.00 1418.00 L 3312.00 1428.00 L 3298.00 1447.00 L 3296.00 1456.00 L 3282.00 1473.00 L 3280.00 1481.00 L 3266.00 1498.00 L 3265.00 1504.00 L 3233.00 1545.00 L 3190.00 1588.00 L 3150.00 1620.00 L 3126.00 1635.00 L 3119.00 1636.00 L 3100.00 1650.00 L 3090.00 1653.00 L 3085.00 1659.00 L 3074.00 1660.00 L 3066.00 1666.00 L 3054.00 1668.00 L 3046.00 1676.00 L 3035.00 1677.00 L 3029.00 1683.00 L 3013.00 1684.00 L 2999.00 1691.00 L 2978.00 1693.00 L 2966.00 1699.00 L 2947.00 1700.00 L 2934.00 1706.00 L 2911.00 1708.00 L 2891.00 1716.00 L 2881.00 1712.00 L 2882.00 1626.00 L 2877.00 1531.00 L 2875.00 1045.00 L 2869.00 870.00 L 2868.00 242.00 L 2865.00 195.00 L 2867.00 174.00 L 2862.00 150.00 Z" fill="#000000" fill-rule="evenodd"/></g></g>
</svg>
